<?xml version="1.0" encoding="utf-8"?>
<!-- Generator: Adobe Illustrator 19.2.1, SVG Export Plug-In . SVG Version: 6.00 Build 0)  -->
<svg version="1.1" id="Capa_1" xmlns="http://www.w3.org/2000/svg" xmlns:xlink="http://www.w3.org/1999/xlink" x="0px" y="0px"
	 viewBox="0 0 423.5 423.5" style="enable-background:new 0 0 423.5 423.5;" xml:space="preserve">
<style type="text/css">
	.st0{fill:#FFFFFF;}
</style>
<g id="XMLID_35_">
	<g>
		<path class="st0" d="M357.1,93.5l-16.9-54c-1-3.1-3.9-5.3-7.2-5.3h-66.8v-1.9c0-17.7-14.4-32.1-32.1-32.1h-44.8
			c-17.7,0-32.1,14.4-32.1,32.1v1.9H90.4c-3.3,0-6.2,2.1-7.2,5.3l-16.9,54c-0.7,2.3-0.3,4.8,1.1,6.7c1.4,1.9,3.7,3.1,6,3.1h12.7
			l19.2,312.9c0.2,4,3.5,7,7.5,7h197.6c4,0,7.2-3.1,7.5-7l19.2-312.9h12.7c2.4,0,4.6-1.1,6-3.1C357.4,98.3,357.8,95.8,357.1,93.5z
			 M172.2,32.3c0-9.4,7.7-17.1,17.1-17.1h44.8c9.4,0,17.1,7.7,17.1,17.1v1.9h-79L172.2,32.3L172.2,32.3z M120,408.2l-18.7-305h18.2
			l13.5,305H120z M148,408.2l-13.5-305H168l5.8,305H148z M234.7,408.2h-46l-5.8-305h57.5L234.7,408.2z M275.5,408.2h-25.8l5.8-305
			H289L275.5,408.2z M303.5,408.2h-12.9l13.5-305h18.2L303.5,408.2z M83.8,88.3l12.2-39h231.6l12.2,39H83.8z"/>
	</g>
</g>
</svg>
