<svg version="1.1"
	 xmlns="http://www.w3.org/2000/svg" xmlns:xlink="http://www.w3.org/1999/xlink" xmlns:a="http://ns.adobe.com/AdobeSVGViewerExtensions/3.0/"
	 x="0px" y="0px" width="364.3px" height="78.8px" viewBox="0 0 364.3 78.8" style="enable-background:new 0 0 364.3 78.8;"
	 xml:space="preserve">
<style type="text/css">
	.st0{fill:#FFFFFF;}
	.st1{fill:none;stroke:#000000;stroke-width:13;stroke-miterlimit:10;}
</style>
<defs>
</defs>
<g>
	<g>
		<path class="st0" d="M49.4,13.5h-24V1.1h61.9v12.4H63.2v64.5H49.4V13.5z"/>
		<path class="st0" d="M112.5,1.1h10.4l30.6,76.8h-14.9l-5.9-16.7h-29.8l-6,16.7h-15L112.5,1.1z M127.9,49.4l-10.2-27.9l-10.2,27.9
			H127.9z"/>
		<path class="st0" d="M156.2,56.2l13.7-3.5c0.9,8.6,7.5,13.2,15.7,13.2c8.1,0,12.7-3.7,12.7-10.6c0-13.2-37-10.5-37-34.9
			c0-12.7,11-20.6,23.6-20.6c9.9,0,18.5,4.1,23.7,13.5l-11.5,7c-2.7-5.2-7.2-8.2-12.2-8.2c-5.2,0-9.6,3.8-9.6,8.5
			c0,12.2,37,9.5,37,35c0,14.4-12,23.2-26.7,23.2C172,78.8,158.7,71.4,156.2,56.2z"/>
		<path class="st0" d="M223.3,1.1h13.8v40.1l38.5-40.1h18.5l-31.5,31.7l29.8,45.1h-16.5L253,42.1L237.1,58v19.9h-13.8V1.1z"/>
		<path class="st0" d="M300.2,1.1H314v76.8h-13.8V1.1z"/>
	</g>
</g>
<line class="st1" x1="0.6" y1="65.7" x2="363.6" y2="29.4"/>
</svg>
