<svg version="1.1"
	 xmlns="http://www.w3.org/2000/svg" xmlns:xlink="http://www.w3.org/1999/xlink" xmlns:a="http://ns.adobe.com/AdobeSVGViewerExtensions/3.0/"
	 x="0px" y="0px" width="371.8px" height="86.6px" viewBox="0 0 371.8 86.6" style="enable-background:new 0 0 371.8 86.6;"
	 xml:space="preserve">
<style type="text/css">
	.st0{fill:#FFFFFF;stroke:#FFFFFF;stroke-miterlimit:10;}
	.st1{fill:#FFFFFF;}
</style>
<defs>
</defs>
<g>
	<path d="M47.8,22.2V25c0,13.7-9,24.6-23.2,24.6C11,49.6,0,38.6,0,25C0,11.5,11,0.5,24.6,0.5c7.2,0,13.1,2.5,17.6,6.7
		c0.3,0.3,0.3,0.7,0,1l-6.6,6.6c-0.3,0.3-0.6,0.3-1,0c-2.2-2-5.1-4-10-4c-7.9,0-13,6.5-13,14.3c0,7.9,5.1,14.4,13,14.4
		c7.7,0,11.3-4.6,11.7-8.3c0.1-0.4-0.2-0.7-0.6-0.7h-9.6c-0.4,0-0.7-0.3-0.7-0.7v-7.5c0-0.4,0.3-0.7,0.7-0.7h21
		C47.5,21.5,47.8,21.8,47.8,22.2z"/>
	<path d="M88.7,39.9v8.9c0,0.4-0.3,0.7-0.7,0.7H58c-0.4,0-0.7-0.3-0.7-0.7V1.4c0-0.4,0.3-0.7,0.7-0.7h29.3C87.7,0.7,88,1,88,1.4v8.9
		c0,0.4-0.3,0.7-0.7,0.7H69.6c-0.4,0-0.7,0.3-0.7,0.7v8.2c0,0.4,0.3,0.7,0.7,0.7h11.4c0.4,0,0.7,0.3,0.7,0.7v8.9
		c0,0.4-0.3,0.7-0.7,0.7H69.6c-0.4,0-0.7,0.3-0.7,0.7v7c0,0.4,0.3,0.7,0.7,0.7H88C88.4,39.2,88.7,39.5,88.7,39.9z"/>
	<path d="M134,1.4v8.9c0,0.4-0.3,0.7-0.7,0.7H123c-0.4,0-0.7,0.3-0.7,0.7v37.1c0,0.4-0.3,0.7-0.7,0.7h-10.3c-0.4,0-0.7-0.3-0.7-0.7
		V11.6c0-0.4-0.3-0.7-0.7-0.7H99.6c-0.4,0-0.7-0.3-0.7-0.7V1.4c0-0.4,0.3-0.7,0.7-0.7h33.7C133.7,0.7,134,1,134,1.4z"/>
	<path d="M189.7,49.4h-17.4c-0.4,0-0.7-0.3-0.7-0.7V1.4c0-0.4,0.3-0.7,0.7-0.7h17.4c14.1,0,25.4,10.5,25.4,24.4
		C215.1,39,203.8,49.4,189.7,49.4z M190.4,11h-6.5c-0.4,0-0.7,0.3-0.7,0.7v26.9c0,0.4,0.3,0.7,0.7,0.7h6.5c6.2,0,13.1-5.3,13.1-14.1
		S196.6,11,190.4,11z"/>
	<path d="M247.2,0.5c14.1,0,24.5,9.8,24.5,24.5c0,14.8-10.5,24.6-24.5,24.6c-14.1,0-24.6-9.8-24.6-24.6
		C222.6,10.3,233,0.5,247.2,0.5z M247.2,10.8c-6.6,0-13,3.9-13,14.3c0,10.5,6.4,14.4,13,14.4c6.5,0,12.9-3.9,12.9-14.4
		C260.1,14.6,253.7,10.8,247.2,10.8z"/>
	<path d="M319.8,49.4h-6.6c-0.3,0-0.6-0.1-0.8-0.4L293,24.4c-0.4-0.5-0.8-0.3-0.8,0.3v24.1c0,0.4-0.3,0.7-0.7,0.7h-10.3
		c-0.4,0-0.7-0.3-0.7-0.7V1.4c0-0.4,0.3-0.7,0.7-0.7h6.6c0.3,0,0.6,0.1,0.8,0.4l19.4,24.7c0.4,0.5,0.8,0.3,0.8-0.3V1.4
		c0-0.4,0.3-0.7,0.7-0.7h10.3c0.4,0,0.7,0.3,0.7,0.7v47.4C320.5,49.2,320.2,49.4,319.8,49.4z"/>
	<path d="M362.8,39.9v8.9c0,0.4-0.3,0.7-0.7,0.7h-30c-0.4,0-0.7-0.3-0.7-0.7V1.4c0-0.4,0.3-0.7,0.7-0.7h29.3c0.4,0,0.7,0.3,0.7,0.7
		v8.9c0,0.4-0.3,0.7-0.7,0.7h-17.7c-0.4,0-0.7,0.3-0.7,0.7v8.2c0,0.4,0.3,0.7,0.7,0.7h11.4c0.4,0,0.7,0.3,0.7,0.7v8.9
		c0,0.4-0.3,0.7-0.7,0.7h-11.4c-0.4,0-0.7,0.3-0.7,0.7v7c0,0.4,0.3,0.7,0.7,0.7h18.4C362.5,39.2,362.8,39.5,362.8,39.9z"/>
</g>
<g>
	<path class="st0" d="M56.3,22.2V25c0,13.7-9,24.6-23.2,24.6c-13.5,0-24.5-11-24.5-24.6c0-13.5,11-24.5,24.6-24.5
		c7.2,0,13.1,2.5,17.6,6.7c0.3,0.3,0.3,0.7,0,1l-6.6,6.6c-0.3,0.3-0.6,0.3-1,0c-2.2-2-5.1-4-10-4c-7.9,0-13,6.5-13,14.3
		c0,7.9,5.1,14.4,13,14.4c7.7,0,11.3-4.6,11.7-8.3c0.1-0.4-0.2-0.7-0.6-0.7h-9.6c-0.4,0-0.7-0.3-0.7-0.7v-7.5c0-0.4,0.3-0.7,0.7-0.7
		h21C56,21.5,56.3,21.8,56.3,22.2z"/>
	<path class="st0" d="M97.2,39.9v8.9c0,0.4-0.3,0.7-0.7,0.7h-30c-0.4,0-0.7-0.3-0.7-0.7V1.4c0-0.4,0.3-0.7,0.7-0.7h29.3
		c0.4,0,0.7,0.3,0.7,0.7v8.9c0,0.4-0.3,0.7-0.7,0.7H78.1c-0.4,0-0.7,0.3-0.7,0.7v8.2c0,0.4,0.3,0.7,0.7,0.7h11.4
		c0.4,0,0.7,0.3,0.7,0.7v8.9c0,0.4-0.3,0.7-0.7,0.7H78.1c-0.4,0-0.7,0.3-0.7,0.7v7c0,0.4,0.3,0.7,0.7,0.7h18.4
		C96.9,39.2,97.2,39.5,97.2,39.9z"/>
	<path class="st0" d="M142.5,1.4v8.9c0,0.4-0.3,0.7-0.7,0.7h-10.3c-0.4,0-0.7,0.3-0.7,0.7v37.1c0,0.4-0.3,0.7-0.7,0.7h-10.3
		c-0.4,0-0.7-0.3-0.7-0.7V11.6c0-0.4-0.3-0.7-0.7-0.7h-10.4c-0.4,0-0.7-0.3-0.7-0.7V1.4c0-0.4,0.3-0.7,0.7-0.7h33.7
		C142.2,0.7,142.5,1,142.5,1.4z"/>
	<path class="st0" d="M198.2,49.4h-17.4c-0.4,0-0.7-0.3-0.7-0.7V1.4c0-0.4,0.3-0.7,0.7-0.7h17.4c14.1,0,25.4,10.5,25.4,24.4
		C223.6,39,212.3,49.4,198.2,49.4z M198.9,11h-6.5c-0.4,0-0.7,0.3-0.7,0.7v26.9c0,0.4,0.3,0.7,0.7,0.7h6.5c6.2,0,13.1-5.3,13.1-14.1
		S205.1,11,198.9,11z"/>
	<path class="st0" d="M255.7,0.5c14.1,0,24.5,9.8,24.5,24.5c0,14.8-10.5,24.6-24.5,24.6c-14.1,0-24.6-9.8-24.6-24.6
		C231.1,10.3,241.5,0.5,255.7,0.5z M255.7,10.8c-6.6,0-13,3.9-13,14.3c0,10.5,6.4,14.4,13,14.4c6.5,0,12.9-3.9,12.9-14.4
		C268.6,14.6,262.2,10.8,255.7,10.8z"/>
	<path class="st0" d="M328.3,49.4h-6.6c-0.3,0-0.6-0.1-0.8-0.4l-19.4-24.7c-0.4-0.5-0.8-0.3-0.8,0.3v24.1c0,0.4-0.3,0.7-0.7,0.7
		h-10.3c-0.4,0-0.7-0.3-0.7-0.7V1.4c0-0.4,0.3-0.7,0.7-0.7h6.6c0.3,0,0.6,0.1,0.8,0.4l19.4,24.7c0.4,0.5,0.8,0.3,0.8-0.3V1.4
		c0-0.4,0.3-0.7,0.7-0.7h10.3c0.4,0,0.7,0.3,0.7,0.7v47.4C329,49.2,328.7,49.4,328.3,49.4z"/>
	<path class="st0" d="M363.7,30.8h-11.4c-0.4,0-0.7,0.3-0.7,0.7v7c0,0.4,0.3,0.7,0.7,0.7h18.4c0.4,0,0.7,0.3,0.7,0.7v8.9
		c0,0.4-0.3,0.7-0.7,0.7h-30c-0.4,0-0.7-0.3-0.7-0.7V1.4c0-0.4,0.3-0.7,0.7-0.7H370c0.4,0,0.7,0.3,0.7,0.7v8.9
		c0,0.4-0.3,0.7-0.7,0.7h-17.7c-0.4,0-0.7,0.3-0.7,0.7v8.2c0,0.4,0.3,0.7,0.7,0.7h11.4"/>
</g>
<rect x="263.3" y="-69.4" transform="matrix(-3.619196e-07 1 -1 -3.619196e-07 294.1657 -242.8972)" width="10.5" height="190.1"/>
<g>
	<path class="st1" d="M36.4,83.7v2.7c0,0.1-0.1,0.2-0.2,0.2h-8.4c-0.1,0-0.2-0.1-0.2-0.2V72.1c0-0.1,0.1-0.2,0.2-0.2h3.1
		c0.1,0,0.2,0.1,0.2,0.2v11.2c0,0.1,0.1,0.2,0.2,0.2h4.9C36.3,83.5,36.4,83.6,36.4,83.7z"/>
	<path class="st1" d="M49.1,83.7v2.7c0,0.1-0.1,0.2-0.2,0.2h-9.1c-0.1,0-0.2-0.1-0.2-0.2V72.1c0-0.1,0.1-0.2,0.2-0.2h8.9
		c0.1,0,0.2,0.1,0.2,0.2v2.7c0,0.1-0.1,0.2-0.2,0.2h-5.3c-0.1,0-0.2,0.1-0.2,0.2v2.5c0,0.1,0.1,0.2,0.2,0.2h3.4
		c0.1,0,0.2,0.1,0.2,0.2v2.7c0,0.1-0.1,0.2-0.2,0.2h-3.4c-0.1,0-0.2,0.1-0.2,0.2v2.1c0,0.1,0.1,0.2,0.2,0.2h5.5
		C49,83.5,49.1,83.6,49.1,83.7z"/>
	<path class="st1" d="M62.8,72.1v2.7c0,0.1-0.1,0.2-0.2,0.2h-3.1c-0.1,0-0.2,0.1-0.2,0.2v11.2c0,0.1-0.1,0.2-0.2,0.2H56
		c-0.1,0-0.2-0.1-0.2-0.2V75.2c0-0.1-0.1-0.2-0.2-0.2h-3.1c-0.1,0-0.2-0.1-0.2-0.2v-2.7c0-0.1,0.1-0.2,0.2-0.2h10.2
		C62.7,71.9,62.8,71.9,62.8,72.1z"/>
	<path class="st1" d="M66.9,71h2.7c0.1,0,0.2,0.1,0.2,0.2L68,76.3c0,0.1-0.1,0.2-0.2,0.2h-2.1c-0.1,0-0.2-0.1-0.2-0.2l1.2-5.1
		C66.7,71.1,66.8,71,66.9,71z"/>
	<path class="st1" d="M72.9,82.2c0-0.1,0.1-0.2,0.2-0.2l3.1-0.5c0.1,0,0.1,0,0.2,0.2c0.3,0.8,1.1,1.8,2.7,1.8c1.1,0,2-0.5,2-1.3
		c0-1.4-1.5-1.4-3.4-2c-2.3-0.6-4.5-1.4-4.5-4.4c0-2.1,2.2-4.2,5.3-4.2c3.8,0,5.4,2.3,5.8,4.1c0,0.1-0.1,0.2-0.2,0.2l-3.1,0.4
		c-0.1,0-0.2,0-0.2-0.2c-0.2-0.8-1.1-1.4-2.3-1.4c-0.8,0-1.8,0.3-1.8,1.3c0,1,1,1.2,3.4,1.8c2.8,0.7,4.6,1.7,4.6,4.3
		c0,2.6-2.2,4.4-5.5,4.4C75.4,86.6,73.3,84.5,72.9,82.2z"/>
	<path class="st1" d="M103.4,71.8c4.2,0,7.4,3,7.4,7.4c0,4.5-3.2,7.4-7.4,7.4c-4.3,0-7.4-3-7.4-7.4C95.9,74.7,99.1,71.8,103.4,71.8z
		 M103.4,74.9c-2,0-3.9,1.2-3.9,4.3c0,3.2,1.9,4.3,3.9,4.3c2,0,3.9-1.2,3.9-4.3C107.2,76.1,105.3,74.9,103.4,74.9z"/>
	<path class="st1" d="M113.2,86.4V72.1c0-0.1,0.1-0.2,0.2-0.2h6.3c3,0,5.3,2.2,5.3,5.2c0,1.9-0.9,3.4-2.5,4.4
		c-0.1,0.1-0.1,0.2-0.1,0.3l2.5,4.6c0.1,0.1,0,0.2-0.1,0.2h-3.3c-0.1,0-0.2,0-0.2-0.1l-2.1-4.1c0-0.1-0.1-0.1-0.2-0.1h-1.9
		c-0.1,0-0.2,0.1-0.2,0.2v3.9c0,0.1-0.1,0.2-0.2,0.2h-3.1C113.3,86.6,113.2,86.5,113.2,86.4z M119.3,79.1c1.3,0,2.2-0.9,2.2-2.1
		c0-1.3-1.1-2.1-2.2-2.1h-2.4c-0.1,0-0.2,0.1-0.2,0.2v3.8c0,0.1,0.1,0.2,0.2,0.2H119.3z"/>
	<path class="st1" d="M142,78.3v0.9c0,4.1-2.7,7.4-7,7.4c-4.1,0-7.4-3.3-7.4-7.4c0-4.1,3.3-7.4,7.4-7.4c2.2,0,4,0.8,5.3,2
		c0.1,0.1,0.1,0.2,0,0.3l-2,2c-0.1,0.1-0.2,0.1-0.3,0c-0.7-0.6-1.5-1.2-3-1.2c-2.4,0-3.9,2-3.9,4.3c0,2.4,1.5,4.3,3.9,4.3
		c2.3,0,3.4-1.4,3.5-2.5c0-0.1-0.1-0.2-0.2-0.2h-2.9c-0.1,0-0.2-0.1-0.2-0.2v-2.3c0-0.1,0.1-0.2,0.2-0.2h6.3
		C141.9,78.1,142,78.2,142,78.3z"/>
	<path class="st1" d="M150,71.9h1.4c0.1,0,0.2,0,0.2,0.1l6.7,14.3c0.1,0.1,0,0.2-0.1,0.2h-3.4c-0.1,0-0.2,0-0.2-0.1l-0.9-2
		c0-0.1-0.1-0.1-0.2-0.1H148c-0.1,0-0.2,0-0.2,0.1l-0.9,2c0,0.1-0.1,0.1-0.2,0.1h-3.4c-0.1,0-0.2-0.1-0.1-0.2l6.8-14.3
		C149.8,71.9,149.9,71.9,150,71.9z M149.4,81.2h2.7c0.1,0,0.2-0.1,0.1-0.2l-1.3-3.1c-0.1-0.1-0.2-0.1-0.3,0l-1.4,3.1
		C149.2,81.1,149.2,81.2,149.4,81.2z"/>
	<path class="st1" d="M172.3,86.6h-2c-0.1,0-0.2,0-0.2-0.1l-5.9-7.4c-0.1-0.2-0.2-0.1-0.2,0.1v7.3c0,0.1-0.1,0.2-0.2,0.2h-3.1
		c-0.1,0-0.2-0.1-0.2-0.2V72.1c0-0.1,0.1-0.2,0.2-0.2h2c0.1,0,0.2,0,0.2,0.1l5.9,7.4c0.1,0.2,0.2,0.1,0.2-0.1v-7.3
		c0-0.1,0.1-0.2,0.2-0.2h3.1c0.1,0,0.2,0.1,0.2,0.2v14.3C172.6,86.5,172.5,86.6,172.3,86.6z"/>
	<path class="st1" d="M182.1,75h-1.1c-0.1,0-0.2,0.1-0.2,0.2v8.1c0,0.1,0.1,0.2,0.2,0.2h1.1c0.1,0,0.2,0.1,0.2,0.2v2.7
		c0,0.1-0.1,0.2-0.2,0.2h-6.1c-0.1,0-0.2-0.1-0.2-0.2v-2.7c0-0.1,0.1-0.2,0.2-0.2h1.1c0.1,0,0.2-0.1,0.2-0.2v-8.1
		c0-0.1-0.1-0.2-0.2-0.2h-1.1c-0.1,0-0.2-0.1-0.2-0.2v-2.7c0-0.1,0.1-0.2,0.2-0.2h6.1c0.1,0,0.2,0.1,0.2,0.2v2.7
		C182.4,74.9,182.3,75,182.1,75z"/>
	<path class="st1" d="M198.5,72.1v1.6c0,0.1,0,0.2-0.1,0.2l-7.2,9.3c-0.1,0.1,0,0.3,0.1,0.3h7c0.1,0,0.2,0.1,0.2,0.2v2.7
		c0,0.1-0.1,0.2-0.2,0.2h-12.2c-0.1,0-0.2-0.1-0.2-0.2v-1.6c0-0.1,0-0.2,0.1-0.3l7.2-9.3c0.1-0.1,0-0.3-0.1-0.3h-6.9
		c-0.1,0-0.2-0.1-0.2-0.2v-2.7c0-0.1,0.1-0.2,0.2-0.2h12.2C198.4,71.9,198.5,71.9,198.5,72.1z"/>
	<path class="st1" d="M211.5,83.7v2.7c0,0.1-0.1,0.2-0.2,0.2h-9.1c-0.1,0-0.2-0.1-0.2-0.2V72.1c0-0.1,0.1-0.2,0.2-0.2h8.8
		c0.1,0,0.2,0.1,0.2,0.2v2.7c0,0.1-0.1,0.2-0.2,0.2h-5.3c-0.1,0-0.2,0.1-0.2,0.2v2.5c0,0.1,0.1,0.2,0.2,0.2h3.4
		c0.1,0,0.2,0.1,0.2,0.2v2.7c0,0.1-0.1,0.2-0.2,0.2h-3.4c-0.1,0-0.2,0.1-0.2,0.2v2.1c0,0.1,0.1,0.2,0.2,0.2h5.5
		C211.4,83.5,211.5,83.6,211.5,83.7z"/>
	<path class="st1" d="M237.4,72.1l-5.8,8c-0.1,0.1-0.1,0.2-0.1,0.3v6c0,0.1-0.1,0.2-0.2,0.2h-3.1c-0.1,0-0.2-0.1-0.2-0.2v-6
		c0-0.1,0-0.2-0.1-0.3l-5.8-8c-0.1-0.1,0-0.2,0.1-0.2h3.8c0.1,0,0.2,0,0.2,0.1l3.2,4.6c0.1,0.1,0.2,0.1,0.3,0l3.2-4.6
		c0.1-0.1,0.1-0.1,0.2-0.1h3.8C237.4,71.9,237.5,72,237.4,72.1z"/>
	<path class="st1" d="M245.3,71.8c4.2,0,7.4,3,7.4,7.4c0,4.5-3.2,7.4-7.4,7.4c-4.3,0-7.4-3-7.4-7.4C237.9,74.7,241,71.8,245.3,71.8z
		 M245.3,74.9c-2,0-3.9,1.2-3.9,4.3c0,3.2,1.9,4.3,3.9,4.3c2,0,3.9-1.2,3.9-4.3C249.2,76.1,247.2,74.9,245.3,74.9z"/>
	<path class="st1" d="M265.1,71.9h3.1c0.1,0,0.2,0.1,0.2,0.2v8.2c0,2.8-1.3,6.4-6.5,6.4c-5.2,0-6.5-3.6-6.5-6.4v-8.2
		c0-0.1,0.1-0.2,0.2-0.2h3.1c0.1,0,0.2,0.1,0.2,0.2v8.2c0,2.3,1.2,3.3,3,3.3c1.8,0,3-1,3-3.3v-8.2C264.9,71.9,265,71.9,265.1,71.9z"
		/>
	<path class="st1" d="M271.7,86.4V72.1c0-0.1,0.1-0.2,0.2-0.2h6.3c3,0,5.3,2.2,5.3,5.2c0,1.9-0.9,3.4-2.5,4.4
		c-0.1,0.1-0.1,0.2-0.1,0.3l2.5,4.6c0.1,0.1,0,0.2-0.1,0.2H280c-0.1,0-0.2,0-0.2-0.1l-2.1-4.1c0-0.1-0.1-0.1-0.2-0.1h-1.9
		c-0.1,0-0.2,0.1-0.2,0.2v3.9c0,0.1-0.1,0.2-0.2,0.2h-3.1C271.8,86.6,271.7,86.5,271.7,86.4z M277.8,79.1c1.3,0,2.2-0.9,2.2-2.1
		c0-1.3-1.1-2.1-2.2-2.1h-2.4c-0.1,0-0.2,0.1-0.2,0.2v3.8c0,0.1,0.1,0.2,0.2,0.2H277.8z"/>
	<path class="st1" d="M300.6,86.6h-5.3c-0.1,0-0.2-0.1-0.2-0.2V72.1c0-0.1,0.1-0.2,0.2-0.2h5.3c4.2,0,7.7,3.2,7.7,7.4
		C308.2,83.4,304.8,86.6,300.6,86.6z M300.8,75h-2c-0.1,0-0.2,0.1-0.2,0.2v8.1c0,0.1,0.1,0.2,0.2,0.2h2c1.9,0,3.9-1.6,3.9-4.3
		C304.7,76.6,302.7,75,300.8,75z"/>
	<path class="st1" d="M315.9,71.9h1.4c0.1,0,0.2,0,0.2,0.1l6.7,14.3c0.1,0.1,0,0.2-0.1,0.2h-3.4c-0.1,0-0.2,0-0.2-0.1l-0.9-2
		c0-0.1-0.1-0.1-0.2-0.1h-5.4c-0.1,0-0.2,0-0.2,0.1l-0.9,2c0,0.1-0.1,0.1-0.2,0.1H309c-0.1,0-0.2-0.1-0.1-0.2l6.8-14.3
		C315.7,71.9,315.8,71.9,315.9,71.9z M315.2,81.2h2.7c0.1,0,0.2-0.1,0.1-0.2l-1.3-3.1c-0.1-0.1-0.2-0.1-0.3,0l-1.4,3.1
		C315,81.1,315.1,81.2,315.2,81.2z"/>
	<path class="st1" d="M337.7,72.1l-5.8,8c-0.1,0.1-0.1,0.2-0.1,0.3v6c0,0.1-0.1,0.2-0.2,0.2h-3.1c-0.1,0-0.2-0.1-0.2-0.2v-6
		c0-0.1,0-0.2-0.1-0.3l-5.8-8c-0.1-0.1,0-0.2,0.1-0.2h3.8c0.1,0,0.2,0,0.2,0.1l3.2,4.6c0.1,0.1,0.2,0.1,0.3,0l3.2-4.6
		c0.1-0.1,0.1-0.1,0.2-0.1h3.8C337.7,71.9,337.8,72,337.7,72.1z"/>
	<path class="st1" d="M340.8,71h3.1c0.1,0,0.2,0.1,0.2,0.2l-0.3,9.8c0,0.1-0.1,0.2-0.2,0.2h-2.5c-0.1,0-0.2-0.1-0.2-0.2l-0.3-9.8
		C340.6,71.1,340.7,71,340.8,71z M342.4,86.6c0.9,0,1.7-0.7,1.7-1.7c0-0.9-0.7-1.7-1.7-1.7c-0.9,0-1.7,0.7-1.7,1.7
		C340.7,85.9,341.4,86.6,342.4,86.6z"/>
</g>
</svg>
