<?xml version="1.0" encoding="utf-8"?>
<!-- Generator: Adobe Illustrator 19.2.1, SVG Export Plug-In . SVG Version: 6.00 Build 0)  -->
<svg version="1.1" id="Capa_1" xmlns="http://www.w3.org/2000/svg" xmlns:xlink="http://www.w3.org/1999/xlink" x="0px" y="0px"
	 viewBox="0 0 489.5 489.5" style="enable-background:new 0 0 489.5 489.5;" xml:space="preserve">
<style type="text/css">
	.st0{fill:#FFFFFF;}
</style>
<g>
	<path class="st0" d="M488.2,221.4c-11-98.2-89.5-176.9-187.7-188.1C172.1,18.6,62.8,118.4,61.4,243.5l-57.6,0c-3.2,0-4.9,4-2.9,6.7
		L88,368.8c1.5,2,4.4,2,5.9,0L181,250.2c2-2.7,0.2-6.7-2.9-6.7l-57.5,0c1.4-87.9,76.2-158.3,165.6-152.3
		c76.9,5.1,139.3,67.8,144.2,144.7c5.2,81.5-53,150.8-130,163.2c-14.3,2.3-24.7,14.8-24.7,29.2c0,17.9,15.9,31.9,33.6,29.1
		C419,440,501.3,338.7,488.2,221.4z"/>
</g>
</svg>
